<svg width="757" height="958" viewBox="-100 -100 757 958" fill="none" xmlns="http://www.w3.org/2000/svg">
<path d="M206.34 87.0903C223.807 84.4119 249.206 104.693 259.352 117.963C313.817 88.4518 371.356 114.713 409.743 156.322C416.291 163.42 420.567 171.336 424.349 180.087C455.718 195.753 485.447 207.6 475.324 248.732C473.799 254.93 471.211 258.84 467.567 263.941C472.096 273.184 475.948 287.235 478.914 297.156C491.448 339.035 498.042 382.564 511.185 424.265C513.989 433.171 518.434 442.303 519.42 451.626C521.176 468.31 507.472 479.772 493.004 484.497C479.962 488.806 466.403 489.988 452.899 491.66C433.232 494.149 413.518 496.26 393.766 497.992C382.341 499.441 365.339 500.236 353.584 500.925C314.672 503.042 275.684 503.369 236.743 501.902C218.98 501.148 201.508 499.573 183.784 498.467C163.535 497.432 145.775 498.125 125.506 495.058C106.562 492.192 80.7898 482.086 79.7651 459.139C79.447 452.029 84.4852 441.98 85.3957 434.063C89.1289 401.578 93.5045 369.105 99.6205 336.974C104.382 311.125 111.893 286.335 116.17 260.647C99.3385 243.524 110.831 221.996 124.009 206.306C128.129 201.4 133.717 197.839 139.038 194.308C139.723 171.994 181.533 155.059 200.176 152.178C198.213 141.378 196.275 130.277 194.844 119.39C193.06 105.813 192.832 94.2903 206.34 87.0903Z" fill="#3E0D2C"/>
<path d="M135.955 264.496C165.074 257.57 163.817 270.281 175.574 291.544C181.58 302.404 195.598 311.08 208.08 309.707C229.332 307.506 241.482 284.942 262.134 280.461C283.658 275.789 312.153 280.15 331.636 290.637C352.867 304.165 362.25 341.426 395.191 335.147C408.226 332.422 419.92 320.456 426.637 309.219C435.412 294.22 436.506 289.049 451.505 278.581C466.997 325.601 475.232 368.959 487.442 416.587C477.135 414.528 466.665 410.258 457.583 405.014C431.229 392.068 412.971 397.75 385.669 404.143C369.322 407.908 363.498 408.688 346.473 408.346C337.121 408.211 327.222 407.316 317.839 406.627L280.006 403.808C255.048 403.328 243.648 403.831 219.325 409.571C208.505 412.301 198.693 414.186 187.761 416.247C176.3 417.687 167.586 417.703 156.005 417.602C139.553 417.054 125.781 412.145 110.152 407.53C106.662 401.152 126.083 310.361 129.274 297.783C131.736 287.512 134.913 275.001 135.955 264.496Z" fill="#FCBC6C"/>
<path d="M219.324 409.571C219.088 409.063 218.798 408.479 218.724 407.916C218.362 405.199 222.236 392.256 222.951 388.303C226.754 367.254 232.79 310.851 244.194 294.978C249.386 287.751 258.014 282.919 266.787 281.664C272.711 280.816 278.334 282.258 283.041 285.983C295.398 295.755 298.872 315.913 300.506 330.624C302.801 351.298 302.963 369.764 294.312 389.105C292.363 393.461 289.936 398.441 286.701 401.987C284.775 404.1 282.625 403.687 280.006 403.808C255.048 403.329 243.648 403.831 219.324 409.571Z" fill="#FFF7E6"/>
<path d="M280.191 301.476C291.092 305.637 290.56 344.535 288.681 355.335C287.171 363.965 281.185 368.563 274.514 372.955C271.247 373.508 270.361 373.306 268.027 370.902C265.577 362.651 273.258 353.215 276.447 344.973C281.94 330.808 273.682 314.044 280.191 301.476Z" fill="white"/>
<path d="M256.92 298.532C260.182 298.962 261.194 299.785 262.519 302.678C261.695 307.202 258.723 307.281 255.875 311.41C252.064 316.934 254.157 321.843 248.813 325.698C244.54 323.597 241.407 322.531 242.554 316.96C244.018 309.85 251.171 302.436 256.92 298.532Z" fill="#FCBC6C"/>
<path d="M264.198 315.274C267.295 316.616 268.243 317.425 268.882 320.781C267.888 324.43 268.597 323.052 265.747 325.99C262.519 324.972 261.772 324.561 260.886 321.228C261.44 318.229 262.18 317.741 264.198 315.274Z" fill="#FCBC6C"/>
<path d="M267.981 380.254C270.862 381.153 271.432 381.581 272.379 384.327C271.894 386.984 270.6 388.064 268.797 390.18C265.616 389.297 264.83 388.93 264.283 385.56C265.261 382.521 265.508 382.45 267.981 380.254Z" fill="white"/>
<path d="M385.669 404.143C384.059 403.582 383.543 403.821 383.173 402.551C381.07 393.892 378.05 373.953 382.388 365.933C391.316 349.42 409.974 329.064 426.314 320.35C439.025 313.57 447.815 325.999 450.827 336.578C454.201 348.416 461.188 395.116 457.583 405.014C431.229 392.068 412.971 397.751 385.669 404.143Z" fill="#FFF7E6"/>
<path d="M392.718 357.349C394.066 357.76 394.783 358.076 396.092 358.609C398.504 362.664 393.057 376.649 392.487 381.828C392.117 385.211 391.678 389.05 391.023 392.365C383.081 390.562 389.221 362.265 392.718 357.349Z" fill="white"/>
<path d="M423.926 330.163C434.287 331.88 431.39 340.445 423.718 344.904C420.559 344.232 418.872 343.346 417.108 340.813C416.13 334.906 418.834 332.86 423.926 330.163Z" fill="#FCBC6C"/>
<path d="M414.65 354.913C419.034 355.348 421.006 355.626 422.223 359.938C421.591 363.238 420.667 364.084 418.702 366.782C412.1 364.961 409.974 360.343 414.65 354.913Z" fill="white"/>
<path d="M405.213 370.178C406.677 369.403 408.48 369.851 409.412 371.217C410.344 372.583 410.105 374.432 408.85 375.509C407.902 376.321 406.577 376.52 405.437 376.022C404.289 375.522 403.534 374.414 403.488 373.169C403.442 371.924 404.112 370.762 405.213 370.178Z" fill="white"/>
<path d="M317.838 406.627C313.263 386.147 312.585 366.47 312.739 345.409C312.793 338.873 311.845 297.656 322.815 298.12C340.472 298.865 346.365 328.415 345.78 341.96C345.934 365.764 341.573 385.815 346.473 408.346C337.121 408.211 327.222 407.316 317.838 406.627Z" fill="#FFF7E6"/>
<path d="M321.652 355.211C323.74 355.657 323.732 355.519 325.396 356.79C326.282 359.896 326.505 392.41 325.565 394.927C318.786 388.489 320.026 363.878 321.652 355.211Z" fill="white"/>
<path d="M321.667 317.632C328.732 319.815 327.684 325.205 325.311 330.906C324.318 331.129 323.37 331.134 322.338 331.206L321.128 330.022C319.703 326.22 320.273 321.362 321.667 317.632Z" fill="#FCBC6C"/>
<path d="M156.005 417.603C156.129 414.597 165.462 399.931 166.809 394.157C177.769 347.195 161.347 341.341 214.19 330.983C210.759 347.512 211.434 362.291 205.326 379.523C199.746 395.263 188.484 400.687 187.761 416.248C176.3 417.687 167.586 417.703 156.005 417.603Z" fill="#FFF7E6"/>
<path d="M204.196 342.365C212.857 347.12 198.51 378.098 194.92 383.991L193.696 383.789L193.262 382.464C195.047 375.829 201.96 345.861 204.196 342.365Z" fill="white"/>
<path d="M188.699 348.492C191.698 350.088 191.745 350.851 191.655 353.948C190.199 356.937 189.769 357.028 186.947 359.03C180.832 356.548 185.981 351.282 188.699 348.492Z" fill="#FCBC6C"/>
<path d="M129.274 297.783C162.241 328.829 125.077 374.734 112.72 406.368C112.392 407.207 110.95 407.326 110.152 407.531C106.662 401.153 126.083 310.362 129.274 297.783Z" fill="#FFF7E6"/>
<path d="M130.399 317.642C132.537 317.855 134.931 317.848 135.338 320.536C137.051 331.873 132.188 344.708 127.217 354.61L125.529 355.27L124.847 353.751C125.335 346.743 127.172 322.603 130.399 317.642Z" fill="white"/>
<path d="M424.881 410.259C438.293 410.339 441.783 412.033 453.924 417.74C466.581 424.784 477.058 427.903 491.194 430.574C497.172 447.915 508.697 459.661 482.173 465.798C459.84 470.964 436.175 471.901 413.487 474.998C407.371 475.716 387.688 477.811 382.303 477.603C360.463 480.032 328.316 481.45 306.43 481.429C278.296 482.04 250.15 481.577 222.052 480.041C205.551 479.141 189.11 477.34 172.526 476.771C168.131 477.097 160.965 476.92 156.568 476.601C138.744 475.308 110.382 476.264 99.8556 459.279C103.248 448.487 107.51 434.265 106.673 422.696L107.971 421.166C112.487 421.143 130.74 427.125 136.629 428.639C155.236 433.42 195.869 430.829 213.832 424.134C228.141 420.869 241.167 417.836 255.857 417.065C290.737 415.237 326.544 422.855 361.249 421.352C382.11 420.447 402.987 411.807 424.881 410.259Z" fill="#C55B2B"/>
<path d="M106.673 422.696C109.226 428.767 113.051 427.738 117.984 432.151C122.101 435.834 129.203 448.712 134.369 450.083C148.375 453.797 170.43 454.401 184.553 450.576C191.965 448.569 183.029 437.079 188.665 434.432C202.045 429.196 215.02 441.859 224.908 448.06C238.835 456.793 252.632 462.601 268.559 465.993C284.066 469.576 300.09 452.585 311.899 468.206C314.341 471.435 308.271 478.852 306.43 481.429C278.296 482.04 250.15 481.577 222.052 480.042C205.551 479.142 189.11 477.341 172.526 476.772C168.131 477.098 160.965 476.921 156.568 476.602C138.744 475.309 110.382 476.264 99.8556 459.28C103.248 448.488 107.51 434.265 106.673 422.696Z" fill="#9B2F30"/>
<path d="M172.525 476.772C174.499 472.393 180.821 471.152 184.424 468.823C193.744 462.798 219.268 468.685 222.051 480.042C205.551 479.142 189.11 477.341 172.525 476.772Z" fill="#C55B2B"/>
<path d="M213.832 424.134C228.141 420.869 241.167 417.836 255.857 417.065C290.737 415.237 326.544 422.855 361.249 421.352C382.11 420.447 402.987 411.807 424.881 410.259C420.636 423.922 402.671 427.703 392.965 434.149L388.435 435.726C368.09 431.701 345.163 459.652 322.946 455.96C309.603 453.741 308.055 438.47 297.493 433.788C281.524 426.706 259.518 427.061 242.139 427.632C234.21 427.892 226.236 429.065 218.327 428.092C215.879 427.801 215.285 426.115 213.832 424.134Z" fill="#9B2F30"/>
<path d="M453.924 417.74C466.581 424.784 477.058 427.903 491.194 430.575C497.172 447.915 508.697 459.662 482.173 465.798C459.84 470.965 436.174 471.902 413.487 474.999C407.37 475.716 387.688 477.811 382.303 477.603C392.988 453.285 442.776 459.884 453.384 449.654C462.066 441.279 448.962 432.721 449.771 423.716C450.033 420.808 451.79 419.505 453.924 417.74Z" fill="#9B2F30"/>
<path d="M392.965 434.149C395.838 435.472 396.038 435.488 398.072 437.812C399.852 445.262 386.332 450.053 380.593 447.606C377.619 442.93 383.212 438.632 386.979 436.509C387.457 436.24 387.95 435.978 388.435 435.726L392.965 434.149Z" fill="white"/>
<path d="M247.203 430.28C254.81 430.035 263.505 437.562 258.991 446.005C250.477 446.283 241.293 439.3 247.203 430.28Z" fill="white"/>
<path d="M332.376 459.758C335.904 459.534 338.569 459.864 340.634 462.979C341.759 468.279 338.677 470.371 334.432 472.72C331.243 472.904 329.61 472.349 327.245 470.403C325.173 465.019 328.4 462.825 332.376 459.758Z" fill="white"/>
<path d="M154.105 432.376C156.738 432.912 157.887 434.145 158.913 436.483C158.743 442.113 154.426 443.571 149.774 444.565C145.894 443.415 143.738 442.134 144.127 437.838C147.203 433.361 148.862 433.425 154.105 432.376Z" fill="white"/>
<path d="M430.404 421.945C433.193 421.988 434.341 421.897 435.196 424.765C434.349 427.96 433.609 428.404 431.298 430.96C428.186 430.773 426.922 430.716 426.059 427.551C427.038 424.413 427.747 424.171 430.404 421.945Z" fill="white"/>
<path d="M424.526 203.354C429.503 205.965 434.002 208.186 438.616 211.45C452.945 220.07 460.41 224.235 455.125 242.904C451.805 252.828 445.426 256.858 437.461 263.105C432.345 267.114 427.215 270.812 422.893 275.728C412.755 287.272 409.412 305.772 394.328 312.564C376.995 322.848 361.426 285.249 348.353 276.721C334.455 267.654 326.104 265.202 310.427 260.162C286.847 258.443 281.816 256.309 256.729 259.793C246.19 263.073 238.519 265.552 229.941 273.076C221.504 280.259 215.433 286.478 204.606 289.474C203.406 288.794 200.121 286.816 198.973 286.453C188.651 280.034 186.662 260.894 174.222 250.14C159.149 237.11 147.505 242.177 129.387 243.108L128.626 241.644C128.554 235.335 133.167 227.811 136.941 222.959C141.882 217.56 144.787 215.327 151.151 211.832C159.76 215.236 168.881 217.949 177.766 220.532C194.482 225.265 206.134 227.487 223.44 224.188C245.899 236.768 284.127 230.166 309.68 230.486C341.281 230.881 377.596 236.684 406.6 221.86C414.727 217.706 419.588 210.749 424.526 203.354Z" fill="#F03946"/>
<path d="M424.526 203.354C429.503 205.965 434.002 208.186 438.616 211.45C420.728 228.554 414.851 237.379 385.715 237.497C379.553 237.522 368.706 236.34 362.951 236.628C329.987 238.273 297.224 237.706 264.237 238.159C255.74 238.276 241.286 235.358 232.028 234.783C221.125 234.105 208.778 234.802 198.357 232.897C192.718 231.867 182.928 226.862 177.028 224.699L177.766 220.532C194.482 225.265 206.134 227.487 223.44 224.188C245.899 236.768 284.127 230.166 309.68 230.486C341.281 230.881 377.596 236.684 406.6 221.86C414.727 217.706 419.588 210.749 424.526 203.354Z" fill="#9B2F30"/>
<path d="M399.189 301.266C384.568 311.799 369.183 296.404 374.491 288.191C380.354 284.742 386.979 293.176 391.786 291.223C399.405 288.124 402.394 271.496 407.417 264.964C415.944 253.877 429.418 251.77 436.282 239.951C439.456 234.478 436.613 228.49 434.703 223.275L435.558 222.725C440.188 224.163 443.115 230.629 442.329 235.28C440.835 244.198 434.98 250.004 428.324 255.437C434.888 254.727 449.324 246.689 455.125 242.905C451.805 252.829 445.426 256.859 437.461 263.106C432.346 267.115 427.215 270.812 422.893 275.728C412.755 287.273 409.412 305.772 394.328 312.565C395.021 307.229 397.972 306.97 399.189 301.266Z" fill="url(#paint0_linear_453_1172)"/>
<path d="M428.324 255.437C434.888 254.727 449.324 246.689 455.125 242.905C451.805 252.829 445.426 256.859 437.461 263.106C432.346 267.115 427.215 270.812 422.893 275.728C412.755 287.272 409.412 305.772 394.328 312.564C395.022 307.228 397.972 306.97 399.189 301.266C414.45 284.318 401.392 272.939 428.324 255.437Z" fill="#9B2F30"/>
<path d="M259.458 253.161C274.536 244.453 289.243 245.766 303.394 254.763C306.06 256.459 308.109 258.673 310.428 260.162C286.847 258.443 281.816 256.309 256.729 259.793C257.28 257.796 258.568 255.08 259.458 253.161Z" fill="#9B2F30"/>
<path d="M151.151 211.832C159.76 215.237 168.882 217.949 177.766 220.533L177.028 224.699C157.983 220.835 153.031 224.394 136.942 222.96C141.882 217.561 144.787 215.328 151.151 211.832Z" fill="#9B2F30"/>
<path d="M222.356 274.67C225.395 274.838 227.059 274.035 229.941 273.076C221.504 280.259 215.433 286.478 204.606 289.474C203.406 288.794 200.121 286.816 198.974 286.453C208.572 282.717 213.433 279.687 222.356 274.67Z" fill="#9B2F30"/>
<path d="M222.356 274.67C228.999 267.683 249.119 259.13 256.958 254.599L259.458 253.161C258.568 255.08 257.28 257.796 256.729 259.792C246.19 263.073 238.519 265.551 229.942 273.076C227.059 274.034 225.395 274.838 222.356 274.67Z" fill="#D1272F"/>
<path d="M154.501 226.536C181.449 224.246 189.502 250.78 208.73 257.307C216.002 259.775 235.975 242.081 247.243 244.771C250.805 245.622 256.215 246.606 258.371 249.661C254.936 253.158 250.583 250.541 246.234 251.498C244.42 251.897 241.61 253.522 239.933 254.461C230.868 259.972 218.723 271.729 207.964 270.133C182.207 266.312 181.212 222.405 149.099 232.031C146.302 232.87 142.776 234.634 139.847 234.371L139.642 233.092C142.84 229.686 150.042 227.836 154.501 226.536Z" fill="url(#paint1_linear_453_1172)"/>
<path d="M308.04 249.809C322.784 248.024 349.285 260.808 355.063 274.406C347.159 274.254 331.551 258.904 322.63 256.423C320.165 255.735 309.388 251.614 308.04 249.809Z" fill="white"/>
<path d="M233.444 187.203C240.572 165.126 250.63 145.55 272.233 134.746C306.329 117.695 345.934 128.809 374.137 151.972C386.162 161.852 403.334 174.839 405.344 191.258C399.859 218.855 334.124 208.528 314.041 208.429C307.284 208.396 295.028 209.125 288.988 208.475L278.427 208.747C268.181 210.771 252.945 210.698 242.599 209.384C229.062 207.665 231.562 197.344 233.444 187.203Z" fill="#F03946"/>
<path d="M288.989 208.474C290.876 207.439 302.639 207.114 305.698 206.809C316.098 205.774 329.856 202.726 340.056 202.62C360.686 202.406 378.566 208.693 397.479 196.155C400.352 194.251 402.186 193.888 405.344 191.257C399.859 218.854 334.124 208.528 314.041 208.428C307.285 208.395 295.028 209.124 288.989 208.474Z" fill="#9B2F30"/>
<path d="M233.444 187.202C241.671 199.557 264.044 209.107 278.427 208.746C268.181 210.771 252.945 210.697 242.599 209.384C229.062 207.664 231.562 197.343 233.444 187.202Z" fill="#9B2F30"/>
<path d="M245.446 180.744L244.25 180.162C243.817 178.473 243.545 178.769 244.633 177.155C250.704 168.153 268.751 178.972 260.516 187.62C259.342 190.536 257.05 193.062 254.485 194.846C246.927 195.864 246.41 185.615 245.446 180.744Z" fill="#9B2F30"/>
<path d="M245.446 180.744L244.25 180.162C243.817 178.473 243.545 178.769 244.633 177.155C250.704 168.153 268.751 178.972 260.516 187.62C257.765 183.855 257.514 180.934 252.714 178.927C249.235 178.747 248.747 179.226 245.446 180.744Z" fill="white"/>
<path d="M295.067 142.987C293.387 140.933 293.842 141.884 293.772 138.85C297.871 129.631 311.067 133.55 312.693 143.219L311.907 144.487L310.135 144.359C303.78 154.225 299.851 152.378 295.067 142.987Z" fill="#9B2F30"/>
<path d="M295.067 142.987C293.387 140.933 293.842 141.884 293.772 138.85C297.871 129.631 311.067 133.55 312.693 143.219L311.907 144.487L310.135 144.359C306.769 140.738 305.143 139.594 301.114 136.661C299.15 138.535 296.962 140.982 295.067 142.987Z" fill="white"/>
<path d="M276.901 163.057L274.845 162.148C275.076 156.273 286.485 155.786 291.122 159.867C292.024 161.566 292.301 164.877 291.13 166.485C288.341 170.53 285.337 176.767 279.813 175.026C275.592 170.446 277.048 168.897 276.901 163.057Z" fill="#9B2F30"/>
<path d="M276.901 163.057L274.845 162.148C275.076 156.273 286.485 155.786 291.122 159.867C292.024 161.566 292.301 164.877 291.13 166.485C285.845 162.368 283.326 159.209 276.901 163.057Z" fill="white"/>
<path d="M348.114 189.912C345.14 189.189 345.903 189.842 344.462 187.772C351.057 175.602 367.897 180.427 361.742 191.812L362.751 192.464C362.265 194.63 361.441 195.507 359.585 196.857C354.485 200.572 350.071 192.635 348.114 189.912Z" fill="#9B2F30"/>
<path d="M348.114 189.912C345.14 189.189 345.903 189.842 344.462 187.772C351.057 175.602 367.897 180.427 361.742 191.812C358.529 189.077 357.143 186.083 353.26 185.534C350.448 186.422 350.048 187.447 348.114 189.912Z" fill="white"/>
<path d="M308.04 185.081L307.4 183.592C311.275 178.356 319.803 179.739 323.308 185.27L323.185 186.586L321.036 187.338C320.25 192.392 319.949 195.254 314.973 197.512C306.946 197.371 307.423 191.118 308.04 185.081Z" fill="#9B2F30"/>
<path d="M308.04 185.081L307.4 183.592C311.275 178.356 319.803 179.739 323.308 185.27L323.185 186.586L321.036 187.338C315.381 184.832 313.91 184.438 308.04 185.081Z" fill="white"/>
<path d="M328.955 153.502L327.63 151.978C329.248 145.438 338.623 145.717 342.768 150.375C343.345 152.565 343.569 155.1 341.928 156.906C335.472 165.689 331.282 162.372 328.955 153.502Z" fill="#9B2F30"/>
<path d="M328.955 153.502L327.63 151.978C329.248 145.438 338.623 145.717 342.768 150.375C343.345 152.565 343.569 155.1 341.928 156.906C339.571 154.212 338.377 151.95 335.056 150.876C332.044 150.932 331.559 151.639 328.955 153.502Z" fill="white"/>
<path d="M372.042 176.486L370.917 175.794C373.39 168.718 385.608 171.333 381.864 180.002C382.372 180.427 382.048 180.082 382.195 181.379L380.77 183.078C377.827 184.156 379.075 184.011 375.862 183.238C373.413 181.455 373.097 179.425 372.042 176.486Z" fill="white"/>
<path d="M372.042 176.485C377.103 176.989 377.588 177.818 381.864 180.002C382.372 180.427 382.049 180.082 382.195 181.378L380.77 183.077C377.827 184.155 379.075 184.011 375.863 183.238C373.413 181.455 373.097 179.424 372.042 176.485Z" fill="#9B2F30"/>
<path d="M168.597 187.132C169.641 186.451 170.707 185.803 171.791 185.188C189.152 175.349 196.282 170.79 215.431 176.015C214.309 179.499 213.493 182.978 212.614 186.528C211.895 192.593 210.877 199.332 211.046 205.379C203.252 204.83 167.074 197.397 162.238 193.07C162.965 190.631 166.394 188.426 168.597 187.132Z" fill="#03673B"/>
<path d="M168.597 187.132C169.641 186.451 170.707 185.803 171.792 185.188C189.152 175.349 196.282 170.79 215.431 176.015C214.309 179.499 213.493 182.978 212.614 186.528C206.21 187.519 172.842 188.794 168.597 187.132Z" fill="#138542"/>
<path d="M222.79 157.618C220.514 151.348 214.25 116.548 214.54 110.251L215.64 109.376C218.377 109.653 219.52 110.867 221.796 112.547C229.414 117.72 236.318 123.855 243.114 130.049C238.727 134.273 236.689 136.709 232.881 141.516C229.62 146.358 225.932 152.591 222.79 157.618Z" fill="#03673B"/>
<path d="M221.797 112.548C229.415 117.72 236.319 123.855 243.114 130.05C238.728 134.273 236.689 136.709 232.881 141.517C230.795 138.253 221.074 115.487 221.797 112.548Z" fill="#138542"/>
<path d="M265.777 0.271983C319.734 -1.90715 374.491 8.88369 420.952 37.1406C477.404 71.3624 518.033 126.53 533.972 190.605C548.108 249.072 538.417 306.509 507.279 357.652C500.839 326.596 492.449 295.975 482.165 265.969C482.781 264.752 483.382 263.527 483.968 262.293C491.155 247.025 492.211 228.285 486.633 213.134C478.36 190.642 455.202 183.189 436.852 171.48C432.245 168.538 425.936 155.024 421.414 150.101C378.42 103.313 324.803 78.554 261.818 102.044C254.87 95.4491 249.446 90.8751 241.758 85.2817C224.929 73.711 200.52 66.0949 187.219 87.0208C177.371 102.515 181.98 124.233 185.797 141.144C172.23 147.369 159.999 152.445 147.46 160.856C132.62 170.812 128.22 186.193 114.493 197.945C103.338 207.494 93.5269 229.465 94.6878 244.062C95.3026 251.788 98.0513 258.347 102.572 264.985C99.6968 280.067 95.1817 295.606 92.0217 310.745C86.0213 339.492 79.7936 370.677 76.592 399.804C66.6728 387.99 57.014 378.416 48.3096 365.172C28.0891 334.404 19.0011 290.065 17.5905 253.825C15.0014 187.336 35.3898 122.398 80.5255 72.9128C128.384 20.4428 196.519 2.56129 265.777 0.271983Z" fill="#FFF7E6"/>
<path fill-rule="evenodd" clip-rule="evenodd" d="M227.274 543.319C227.567 543.271 227.865 543.273 228.163 543.275C228.287 543.275 228.412 543.276 228.536 543.273C254.793 542.659 284.628 559.856 285.19 588.929C285.406 600.039 276.892 609.657 268.455 619.187C261.497 627.046 254.592 634.846 252.678 643.376C250.561 652.809 266.092 660.666 275.753 660.937C278.721 661.02 279.052 657.313 279.388 653.558C279.566 651.573 279.745 649.575 280.314 648.115C284.344 637.776 290.291 627.681 300.968 623.11C306.453 620.762 316.1 619.569 321.59 621.977C324.32 623.175 326.404 625.474 327.345 628.311C329.156 633.773 324.335 643.229 319.463 652.783C314.02 663.457 308.515 674.255 312.13 679.738C316.748 686.741 322.082 691.424 326.464 695.27C335.988 703.631 341.007 708.036 324.356 723.729C313.59 733.875 304.948 730.589 294.498 726.615C288.619 724.38 282.167 721.927 274.444 721.525C263.81 720.972 255.962 725.695 247.88 730.558C240.572 734.955 233.073 739.467 223.154 740.296C201.354 742.118 176.667 733.022 176.192 707.594C175.947 694.468 185.046 682.164 194.009 670.046C200.478 661.298 206.876 652.647 209.636 643.853C211.784 637.013 206.362 629.505 201.111 622.235C198.207 618.214 195.356 614.266 193.865 610.542C181.025 578.464 190.168 549.508 227.274 543.319ZM249.657 699.876C249.767 699.82 249.794 699.679 249.718 699.581L231.613 676.303C231.534 676.201 231.382 676.198 231.303 676.3C229.755 678.292 217.244 694.868 223.569 702.398C229.776 709.787 247.539 700.966 249.657 699.876ZM236.717 626.142C231.139 628.001 223.569 602.476 223.569 591.958C223.569 583.245 233.719 576.891 236.717 576.181C239.714 575.471 242.389 575.577 244.605 576.181C249.151 577.421 250.506 581.185 252.066 585.521C252.206 585.91 252.348 586.303 252.493 586.699C254.264 591.519 252.494 602.476 252.494 602.476C251.116 613.498 244.605 623.513 236.717 626.142Z" fill="#3E0D2C"/>
<path d="M70.8481 547.164C92.1933 545.7 93.3411 564.478 92.7572 580.167C92.1972 592.912 92.2796 607.483 89.9878 620.074C85.0097 647.436 89.1458 669.297 93.1509 696.412C103.729 688.799 116.804 679.584 129.933 681.256C153.937 684.322 151.159 709.504 139.176 723.759C132.258 731.997 127.949 736.173 119.753 742.569C80.275 772.096 48.3165 757.841 42.2021 709.265C38.2054 677.511 30.6581 558.491 70.8481 547.164Z" fill="#3E0D2C"/>
<path d="M483.914 542.457C516.046 541.178 513.596 579.358 512.564 600.687C509.359 666.716 480.94 770.787 392.68 724.8C376.656 715.099 364.792 692.56 374.545 674.999C389.752 647.645 422.516 692.09 443.408 683.845C461.573 675.963 459.563 655.697 460.98 639.107C463.384 610.99 461.165 578.989 471.673 552.397C473.992 546.533 478.444 544.221 483.914 542.457Z" fill="#3E0D2C"/>
<path d="M30.5682 475.567C62.1162 474.163 44.0418 503.869 17.5552 506.717C6.46582 506.516 -6.28222 500.587 3.47679 487.816C9.64509 479.744 20.9525 477.012 30.5682 475.567Z" fill="#3E0D2C"/>
<path d="M495.492 494.085C501.717 493.744 527.501 492.316 519.689 507.958C517.163 513.013 504.814 516.149 498.959 517.07C462.166 517.863 458.777 497.428 495.492 494.085Z" fill="#3E0D2C"/>
<path d="M61.5861 487.787C78.048 487.121 112.524 496.504 80.5756 509.907C53.4056 518.381 38.9983 493.609 61.5861 487.787Z" fill="#3E0D2C"/>
<path d="M531.538 472.342C532.123 472.307 532.701 472.283 533.287 472.267C540.389 472.098 556.328 475.136 556.359 483.987C554.179 488.041 550.874 488.652 546.568 490.155C525.221 494.847 511.262 479.015 531.538 472.342Z" fill="#3E0D2C"/>
<path d="M54.0588 455.73C64.5018 455.462 64.2383 465.787 58.2473 472.432C48.0546 472.166 47.9806 462.237 54.0588 455.73Z" fill="#3E0D2C"/>
<path d="M308.664 514.095C310.921 513.277 313.44 513.765 315.235 515.366C317.022 516.966 317.792 519.424 317.23 521.758C316.668 524.093 314.873 525.935 312.554 526.544C309.18 527.437 305.698 525.519 304.658 522.182C303.61 518.846 305.374 515.286 308.664 514.095Z" fill="#3E0D2C"/>
<path d="M534.689 498.153C538.063 497.278 541.514 499.287 542.416 502.654C543.317 506.021 541.337 509.485 537.978 510.415C534.581 511.356 531.068 509.347 530.159 505.941C529.242 502.535 531.284 499.037 534.689 498.153Z" fill="#3E0D2C"/>
<path d="M325.912 516.547C326.967 515.688 328.408 515.49 329.648 516.033C330.896 516.577 331.728 517.77 331.813 519.123C331.898 520.48 331.22 521.766 330.049 522.46C328.423 523.431 326.32 522.976 325.234 521.427C324.156 519.871 324.448 517.744 325.912 516.547Z" fill="#3E0D2C"/>
<defs>
<linearGradient id="paint0_linear_453_1172" x1="411.369" y1="222.174" x2="402.918" y2="304.435" gradientUnits="userSpaceOnUse">
<stop stop-color="#FFEBF3"/>
<stop offset="1" stop-color="white"/>
</linearGradient>
<linearGradient id="paint1_linear_453_1172" x1="192.812" y1="219.645" x2="203.342" y2="269.935" gradientUnits="userSpaceOnUse">
<stop stop-color="#FFE7F3"/>
<stop offset="1" stop-color="white"/>
</linearGradient>
</defs>
</svg>
