<svg width="266" height="208" viewBox="0 0 266 208" fill="none" xmlns="http://www.w3.org/2000/svg">
<path d="M3.88161 206.267C2.44371 208.06 -0.635841 206.446 0.116791 204.274C17.5504 153.972 30.2521 135.397 57.849 120.844C74.9977 113.531 96.5312 115.177 191.025 106.219C213.301 104.107 222.403 93.422 230.795 55.7637C234.609 22.6453 235.627 11.8026 229.042 8.6333C228.997 8.6115 228.959 8.57231 228.944 8.5244C227.839 5.04265 247.238 -1.35757 265.647 2.71045C265.746 2.73245 265.813 2.82987 265.802 2.93121C257.015 81.7224 251.794 107.376 240.281 118.649C219.307 135.028 193.718 140.626 134.106 147.533C71.6801 154.747 36.3573 165.771 3.88161 206.267Z" fill="#401B01"/>
<path d="M24.919 7.7259C24.3411 8.21075 24.2525 9.06246 24.6956 9.67296C27.9495 14.1562 29.4051 19.6961 28.7752 25.1998L20.8711 94.2655C20.7413 95.3992 21.5848 96.4115 22.7233 96.4884L53.1058 98.5409C63.3151 99.4494 69.0923 101.282 79.0112 94.8847C85.3352 86.5037 86.5442 81.1696 84.0979 72.0803C83.7631 70.8363 82.3232 70.2739 81.1814 70.8705C79.0105 72.0047 75.6688 73.59 73.1734 74.0447C69.6145 74.6931 57.1886 76.4431 52.3607 76.3643C51.4919 76.3501 50.8713 75.6544 50.9169 74.7867C51.4044 65.5182 59.1434 30.3928 59.3085 20.2993C59.3485 7.00319 55.6416 3.49518 46.9031 1.65292C37.2093 1.869 31.6246 2.09994 24.919 7.7259Z" fill="#401B01"/>
<path fill-rule="evenodd" clip-rule="evenodd" d="M149.43 42.236C145.765 44.2551 144.43 48.83 146.563 52.4302C150.237 58.6291 155.537 66.6985 157.092 64.5387C159.546 61.1313 160.11 56.6101 158.917 53.9359C157.723 51.2616 149.428 56.5317 153.444 48.8173C157.459 41.1029 162.694 39.051 169.133 38.9457C175.572 38.8404 178.233 40.1206 181.173 44.0643C184.114 48.0079 183.362 56.5328 180.809 62.7106C179.258 66.4616 175.555 70.6446 172.885 73.3523C171.705 74.5491 172.325 76.6692 173.98 76.9612C177.564 77.5934 182.435 78.4615 184.092 78.7977C186.828 79.3528 186.926 80.8671 186.281 84.2819C180.283 95.9228 176.509 98.2801 166.944 99.2721C159.06 100.09 155.267 97.8848 151.098 93.9607C149.434 92.3947 146.961 92.0473 144.989 93.2017C140.158 96.0295 136.305 97.9476 127.903 98.9065C117.674 100.074 109.982 100.238 100.903 93.7879C91.824 87.3382 90.0292 81.3537 90.322 71.4852C90.6148 61.6167 93.9576 57.5299 99.0788 51.3766C104.2 45.2233 115.468 48.0629 112.579 41.8706C109.69 35.6782 107.811 30.6446 110.025 19.9337C112.116 9.81262 114.935 6.21871 124.254 2.38428C133.574 -1.45014 142.624 -0.0647519 151.254 2.38418C159.885 4.83311 164.329 8.06009 164.754 15.5463C165.18 23.0325 164.479 25.9372 161.836 31.2678C159.192 36.5983 153.995 39.7212 149.43 42.236ZM141.038 29.0741C141.038 29.0741 138.594 34.3894 135.93 33.8271C133.61 33.3372 133.374 30.9701 132.646 28.7085C131.945 26.53 131.531 24.7817 131.552 22.4928C131.57 20.4888 131.681 19.4951 132.646 17.74C133.527 16.1386 134.558 15.3742 136.295 14.8151C137.787 14.3348 138.834 14.2822 140.309 14.8151C141.923 15.3984 142.837 16.1962 143.592 17.74C144.47 19.5348 143.927 20.888 143.592 22.8586C143.153 25.4464 141.038 29.0741 141.038 29.0741ZM118.417 72.9477C118.17 71.0577 117.687 69.2915 118.781 62.7104C118.882 62.1051 119.672 59.1971 120.941 57.6951C121.49 57.0462 122.401 57.3061 122.895 57.9978C126.282 62.7474 131.85 71.6442 135.336 76.9044C136.426 78.5493 133.945 81.2947 131.972 81.3066C130.175 81.3174 128.51 81.201 127.824 81.0699C127.628 81.0324 127.44 80.978 127.246 80.9291C124.83 80.3201 118.914 76.7647 118.417 72.9477Z" fill="#401B01"/>
</svg>
